<svg data-v-fde0c5aa="" xmlns="http://www.w3.org/2000/svg" viewBox="0 0 300 300" class="iconLeft"><!----><defs data-v-fde0c5aa=""><!----></defs><rect data-v-fde0c5aa="" fill="transparent" x="0" y="0" width="300px" height="300px" class="logo-background-square"></rect><defs data-v-fde0c5aa=""><!----></defs><g data-v-fde0c5aa="" id="4cb40cfd-2509-4951-a1be-5a1eb666cf3a" fill="#000000" transform="matrix(2.270234692993851,0,0,2.270234692993851,100.03926073872002,130.13544697756993)"><path d="M0.49 9.38C0.49 10.40 0.80 11.21 1.41 11.82C2.02 12.43 2.78 12.74 3.68 12.74C4.65 12.74 5.39 12.32 5.88 11.49L5.88 12.60L7 12.60L7 1.68L5.88 1.68L5.88 7.27C5.39 6.44 4.65 6.02 3.68 6.02C2.78 6.02 2.02 6.33 1.41 6.94C0.80 7.55 0.49 8.36 0.49 9.38ZM1.62 9.38C1.62 8.66 1.83 8.10 2.25 7.69C2.67 7.28 3.20 7.07 3.82 7.07C4.35 7.07 4.83 7.28 5.25 7.70C5.67 8.12 5.88 8.68 5.88 9.38C5.88 10.08 5.67 10.64 5.25 11.06C4.83 11.48 4.35 11.69 3.82 11.69C3.20 11.69 2.67 11.48 2.25 11.07C1.83 10.66 1.62 10.10 1.62 9.38ZM9.03 3.50C9.03 3.71 9.11 3.88 9.26 4.04C9.42 4.19 9.59 4.27 9.80 4.27C10.01 4.27 10.19 4.19 10.34 4.04C10.49 3.88 10.57 3.71 10.57 3.50C10.57 3.29 10.49 3.12 10.34 2.96C10.19 2.81 10.01 2.73 9.80 2.73C9.59 2.73 9.42 2.81 9.26 2.96C9.11 3.12 9.03 3.29 9.03 3.50ZM9.24 6.16L9.24 12.60L10.36 12.60L10.36 6.16ZM12.11 9.38C12.11 10.40 12.42 11.21 13.03 11.82C13.64 12.43 14.40 12.74 15.30 12.74C16.27 12.74 17.01 12.32 17.50 11.49L17.50 12.46C17.50 13.22 17.29 13.79 16.88 14.18C16.46 14.57 15.98 14.77 15.43 14.77C14.82 14.77 14.33 14.60 13.94 14.25C13.56 13.91 13.37 13.50 13.37 13.02L12.24 13.02C12.24 13.85 12.53 14.53 13.13 15.04C13.72 15.56 14.49 15.82 15.43 15.82C16.30 15.82 17.05 15.52 17.68 14.93C18.30 14.34 18.62 13.51 18.62 12.46L18.62 6.16L17.50 6.16L17.50 7.27C17.01 6.44 16.27 6.02 15.30 6.02C14.40 6.02 13.64 6.33 13.03 6.94C12.42 7.55 12.11 8.36 12.11 9.38ZM13.24 9.38C13.24 8.66 13.45 8.10 13.87 7.69C14.29 7.28 14.82 7.07 15.44 7.07C15.97 7.07 16.45 7.28 16.87 7.70C17.29 8.12 17.50 8.68 17.50 9.38C17.50 10.08 17.29 10.64 16.87 11.06C16.45 11.48 15.97 11.69 15.44 11.69C14.82 11.69 14.29 11.48 13.87 11.07C13.45 10.66 13.24 10.10 13.24 9.38ZM20.65 3.50C20.65 3.71 20.73 3.88 20.88 4.04C21.04 4.19 21.21 4.27 21.42 4.27C21.63 4.27 21.80 4.19 21.96 4.04C22.11 3.88 22.19 3.71 22.19 3.50C22.19 3.29 22.11 3.12 21.96 2.96C21.80 2.81 21.63 2.73 21.42 2.73C21.21 2.73 21.04 2.81 20.88 2.96C20.73 3.12 20.65 3.29 20.65 3.50ZM20.86 6.16L20.86 12.60L21.98 12.60L21.98 6.16ZM24.36 3.92L24.36 6.16L23.31 6.16L23.31 7.21L24.36 7.21L24.36 12.60L25.48 12.60L25.48 7.21L26.53 7.21L26.53 6.16L25.48 6.16L25.48 3.92ZM28.15 7.67C28.77 7.22 29.41 7.00 30.07 7.00C30.45 7.00 30.77 7.09 31.03 7.26C31.30 7.43 31.43 7.67 31.43 7.98L31.43 8.95C31.01 8.71 30.50 8.60 29.90 8.60C29.14 8.60 28.47 8.78 27.89 9.13C27.31 9.49 27.02 10.00 27.02 10.64C27.02 11.33 27.25 11.85 27.71 12.21C28.18 12.56 28.68 12.74 29.23 12.74C29.73 12.74 30.17 12.65 30.55 12.46C30.94 12.27 31.23 12.01 31.43 11.68L31.43 12.60L32.55 12.60L32.55 7.98C32.55 7.36 32.32 6.88 31.87 6.54C31.42 6.19 30.82 6.02 30.07 6.02C29.16 6.02 28.34 6.29 27.61 6.82ZM28.15 10.64C28.15 9.85 28.76 9.45 29.96 9.45C30.49 9.45 30.98 9.53 31.43 9.70L31.43 10.08C31.43 11.19 30.84 11.75 29.65 11.75C28.65 11.75 28.15 11.38 28.15 10.64ZM34.44 1.68L34.44 12.60L35.56 12.60L35.56 1.68ZM48.30 9.38C48.30 8.36 47.99 7.55 47.38 6.94C46.77 6.33 46.01 6.02 45.11 6.02C44.14 6.02 43.40 6.44 42.91 7.27L42.91 6.16L41.79 6.16L41.79 15.68L42.91 15.68L42.91 11.49C43.40 12.32 44.14 12.74 45.11 12.74C46.01 12.74 46.77 12.43 47.38 11.82C47.99 11.21 48.30 10.40 48.30 9.38ZM47.17 9.38C47.17 10.10 46.96 10.66 46.54 11.07C46.12 11.48 45.59 11.69 44.97 11.69C44.44 11.69 43.96 11.48 43.54 11.06C43.12 10.64 42.91 10.08 42.91 9.38C42.91 8.68 43.12 8.12 43.54 7.70C43.96 7.28 44.44 7.07 44.97 7.07C45.59 7.07 46.12 7.28 46.54 7.69C46.96 8.10 47.17 8.66 47.17 9.38ZM49.84 1.68L49.84 12.60L50.96 12.60L50.96 1.68ZM53.56 7.67C54.18 7.22 54.82 7.00 55.48 7.00C55.86 7.00 56.18 7.09 56.44 7.26C56.71 7.43 56.84 7.67 56.84 7.98L56.84 8.95C56.42 8.71 55.91 8.60 55.31 8.60C54.55 8.60 53.88 8.78 53.30 9.13C52.72 9.49 52.43 10.00 52.43 10.64C52.43 11.33 52.66 11.85 53.12 12.21C53.59 12.56 54.09 12.74 54.64 12.74C55.14 12.74 55.58 12.65 55.97 12.46C56.35 12.27 56.64 12.01 56.84 11.68L56.84 12.60L57.96 12.60L57.96 7.98C57.96 7.36 57.73 6.88 57.28 6.54C56.83 6.19 56.23 6.02 55.48 6.02C54.57 6.02 53.75 6.29 53.02 6.82ZM53.56 10.64C53.56 9.85 54.17 9.45 55.37 9.45C55.90 9.45 56.39 9.53 56.84 9.70L56.84 10.08C56.84 11.19 56.25 11.75 55.06 11.75C54.06 11.75 53.56 11.38 53.56 10.64ZM60.14 10.35L59.22 10.88C59.31 11.40 59.61 11.84 60.10 12.20C60.60 12.56 61.14 12.74 61.74 12.74C62.47 12.74 63.04 12.58 63.46 12.26C63.88 11.93 64.09 11.44 64.09 10.78C64.09 10.01 63.50 9.37 62.31 8.88C62.00 8.75 61.75 8.64 61.57 8.55C61.38 8.46 61.20 8.34 61.02 8.18C60.84 8.03 60.75 7.87 60.75 7.71C60.75 7.29 61.07 7.08 61.73 7.08C62.01 7.08 62.28 7.15 62.55 7.28C62.81 7.41 63.01 7.60 63.14 7.85L64.04 7.28C63.91 6.93 63.63 6.63 63.17 6.38C62.71 6.14 62.23 6.02 61.71 6.02C61.16 6.02 60.68 6.18 60.26 6.49C59.84 6.80 59.63 7.21 59.63 7.71C59.63 7.97 59.68 8.19 59.78 8.40C59.88 8.61 60.03 8.78 60.24 8.93C60.44 9.08 60.62 9.20 60.80 9.29C60.98 9.38 61.20 9.48 61.47 9.59C61.72 9.68 61.90 9.76 62.03 9.82C62.15 9.88 62.30 9.97 62.46 10.07C62.62 10.18 62.74 10.30 62.82 10.43C62.89 10.56 62.93 10.71 62.93 10.88C62.93 11.42 62.56 11.69 61.81 11.69C61.41 11.69 61.05 11.56 60.74 11.31C60.43 11.06 60.23 10.74 60.14 10.35ZM66.07 7.67C66.68 7.22 67.32 7.00 67.98 7.00C68.36 7.00 68.68 7.09 68.94 7.26C69.21 7.43 69.34 7.67 69.34 7.98L69.34 8.95C68.92 8.71 68.41 8.60 67.82 8.60C67.05 8.60 66.38 8.78 65.80 9.13C65.22 9.49 64.93 10.00 64.93 10.64C64.93 11.33 65.16 11.85 65.63 12.21C66.09 12.56 66.59 12.74 67.14 12.74C67.64 12.74 68.08 12.65 68.47 12.46C68.85 12.27 69.15 12.01 69.34 11.68L69.34 12.60L70.46 12.60L70.46 7.98C70.46 7.36 70.24 6.88 69.78 6.54C69.33 6.19 68.73 6.02 67.98 6.02C67.07 6.02 66.25 6.29 65.52 6.82ZM66.07 10.64C66.07 9.85 66.67 9.45 67.87 9.45C68.40 9.45 68.89 9.53 69.34 9.70L69.34 10.08C69.34 11.19 68.75 11.75 67.56 11.75C66.57 11.75 66.07 11.38 66.07 10.64Z"></path></g><defs data-v-fde0c5aa=""><linearGradient data-v-fde0c5aa="" gradientTransform="rotate(25)" id="f0d6a7d9-7a51-4d66-a514-59b786e33776" x1="0%" y1="0%" x2="100%" y2="0%"><stop data-v-fde0c5aa="" offset="0%" stop-color="#A21F38" stop-opacity="1"></stop><stop data-v-fde0c5aa="" offset="100%" stop-color="#D8806B" stop-opacity="1"></stop></linearGradient></defs><g data-v-fde0c5aa="" id="cdff7768-0b12-41bb-a2ff-194720287cf4" stroke="none" fill="url(#f0d6a7d9-7a51-4d66-a514-59b786e33776)" transform="matrix(1.5047398674980514,0,0,1.5047398674980514,40,125.92416212003118)"><path d="M6.651 19.325h6.024V32h6.65V19.325h6.024V32H32V0h-6.651v12.675h-6.024V0h-6.65v12.675H6.651V0H0v32h6.651z"></path></g><!----></svg>