<svg width="262" height="49" viewBox="0 0 262 49" fill="none" xmlns="http://www.w3.org/2000/svg">
<path d="M10.008 29.0791H19.0726V48.1517H29.0791V29.0791H38.1437V48.1517H48.1517V0H38.1437V19.0726H29.0791V0H19.0726V19.0726H10.008V0H0V48.1517H10.008V29.0791Z" fill="url(#paint0_linear_107_18)"/>
<path d="M59.1517 25.8946C59.1517 28.8393 60.0467 31.1777 61.8077 32.9388C63.5688 34.6998 65.7629 35.5948 68.3611 35.5948C71.1615 35.5948 73.2978 34.3823 74.7124 31.9861V35.1906H77.9458V3.6651H74.7124V19.8032C73.2978 17.407 71.1615 16.1945 68.3611 16.1945C65.7629 16.1945 63.5688 17.0894 61.8077 18.8505C60.0467 20.6115 59.1517 22.9499 59.1517 25.8946ZM62.414 25.8946C62.414 23.816 63.0202 22.1993 64.2328 21.0157C65.4453 19.832 66.9754 19.2258 68.7653 19.2258C70.2954 19.2258 71.6811 19.832 72.8936 21.0445C74.1061 22.2571 74.7124 23.8738 74.7124 25.8946C74.7124 27.9155 74.1061 29.5322 72.8936 30.7447C71.6811 31.9572 70.2954 32.5635 68.7653 32.5635C66.9754 32.5635 65.4453 31.9572 64.2328 30.7736C63.0202 29.5899 62.414 27.9732 62.414 25.8946ZM83.8063 8.91935C83.8063 9.52561 84.0373 10.0164 84.4703 10.4783C84.9322 10.9113 85.423 11.1423 86.0293 11.1423C86.6355 11.1423 87.1552 10.9113 87.5882 10.4783C88.0212 10.0164 88.2522 9.52561 88.2522 8.91935C88.2522 8.31309 88.0212 7.82231 87.5882 7.3604C87.1552 6.92736 86.6355 6.6964 86.0293 6.6964C85.423 6.6964 84.9322 6.92736 84.4703 7.3604C84.0373 7.82231 83.8063 8.31309 83.8063 8.91935ZM84.4126 16.5986V35.1906H87.6459V16.5986H84.4126ZM92.6981 25.8946C92.6981 28.8393 93.5931 31.1777 95.3541 32.9388C97.1151 34.6998 99.3092 35.5948 101.907 35.5948C104.708 35.5948 106.844 34.3823 108.259 31.9861V34.7864C108.259 36.9805 107.653 38.6261 106.469 39.752C105.256 40.8779 103.871 41.4553 102.283 41.4553C100.522 41.4553 99.1071 40.9645 97.9812 39.9541C96.8842 38.9725 96.3357 37.7889 96.3357 36.4031H93.0734C93.0734 38.7993 93.9106 40.7624 95.6428 42.2348C97.3461 43.736 99.5691 44.4866 102.283 44.4866C104.794 44.4866 106.96 43.6205 108.778 41.9172C110.568 40.2139 111.492 37.8177 111.492 34.7864V16.5986H108.259V19.8032C106.844 17.407 104.708 16.1945 101.907 16.1945C99.3092 16.1945 97.1151 17.0894 95.3541 18.8505C93.5931 20.6115 92.6981 22.9499 92.6981 25.8946ZM95.9604 25.8946C95.9604 23.816 96.5666 22.1993 97.7791 21.0157C98.9917 19.832 100.522 19.2258 102.312 19.2258C103.842 19.2258 105.227 19.832 106.44 21.0445C107.653 22.2571 108.259 23.8738 108.259 25.8946C108.259 27.9155 107.653 29.5322 106.44 30.7447C105.227 31.9572 103.842 32.5635 102.312 32.5635C100.522 32.5635 98.9917 31.9572 97.7791 30.7736C96.5666 29.5899 95.9604 27.9732 95.9604 25.8946ZM117.353 8.91935C117.353 9.52561 117.584 10.0164 118.017 10.4783C118.479 10.9113 118.969 11.1423 119.576 11.1423C120.182 11.1423 120.673 10.9113 121.135 10.4783C121.568 10.0164 121.799 9.52561 121.799 8.91935C121.799 8.31309 121.568 7.82231 121.135 7.3604C120.673 6.92736 120.182 6.6964 119.576 6.6964C118.969 6.6964 118.479 6.92736 118.017 7.3604C117.584 7.82231 117.353 8.31309 117.353 8.91935ZM117.959 16.5986V35.1906H121.192V16.5986H117.959ZM128.063 10.1319V16.5986H125.032V19.6299H128.063V35.1906H131.297V19.6299H134.328V16.5986H131.297V10.1319H128.063ZM139.005 20.9579C140.795 19.6588 142.642 19.0237 144.548 19.0237C145.645 19.0237 146.569 19.2835 147.319 19.7743C148.099 20.2651 148.474 20.9579 148.474 21.8529V24.6532C147.261 23.9604 145.789 23.6428 144.057 23.6428C141.863 23.6428 139.929 24.1625 138.254 25.1729C136.58 26.2122 135.743 27.6845 135.743 29.5322C135.743 31.5242 136.407 33.0254 137.735 34.0647C139.091 35.0751 140.535 35.5948 142.123 35.5948C143.566 35.5948 144.836 35.335 145.933 34.7864C147.059 34.2379 147.897 33.4873 148.474 32.5346V35.1906H151.707V21.8529C151.707 20.063 151.043 18.6772 149.744 17.6957C148.445 16.6853 146.713 16.1945 144.548 16.1945C141.921 16.1945 139.553 16.9739 137.446 18.504L139.005 20.9579ZM139.005 29.5322C139.005 27.2515 140.766 26.0967 144.23 26.0967C145.76 26.0967 147.175 26.3277 148.474 26.8184V27.9155C148.474 31.12 146.771 32.7367 143.335 32.7367C140.448 32.7367 139.005 31.6685 139.005 29.5322ZM157.164 3.6651V35.1906H160.397V3.6651H157.164ZM197.177 25.8946C197.177 22.9499 196.282 20.6115 194.521 18.8505C192.76 17.0894 190.566 16.1945 187.968 16.1945C185.167 16.1945 183.031 17.407 181.616 19.8032V16.5986H178.383V44.0824H181.616V31.9861C183.031 34.3823 185.167 35.5948 187.968 35.5948C190.566 35.5948 192.76 34.6998 194.521 32.9388C196.282 31.1777 197.177 28.8393 197.177 25.8946ZM193.915 25.8946C193.915 27.9732 193.308 29.5899 192.096 30.7736C190.883 31.9572 189.353 32.5635 187.563 32.5635C186.033 32.5635 184.648 31.9572 183.435 30.7447C182.222 29.5322 181.616 27.9155 181.616 25.8946C181.616 23.8738 182.222 22.2571 183.435 21.0445C184.648 19.832 186.033 19.2258 187.563 19.2258C189.353 19.2258 190.883 19.832 192.096 21.0157C193.308 22.1993 193.915 23.816 193.915 25.8946ZM201.623 3.6651V35.1906H204.856V3.6651H201.623ZM212.362 20.9579C214.152 19.6588 216 19.0237 217.905 19.0237C219.002 19.0237 219.926 19.2835 220.677 19.7743C221.456 20.2651 221.831 20.9579 221.831 21.8529V24.6532C220.619 23.9604 219.147 23.6428 217.414 23.6428C215.22 23.6428 213.286 24.1625 211.612 25.1729C209.937 26.2122 209.1 27.6845 209.1 29.5322C209.1 31.5242 209.764 33.0254 211.092 34.0647C212.449 35.0751 213.892 35.5948 215.48 35.5948C216.924 35.5948 218.194 35.335 219.32 34.7864C220.417 34.2379 221.254 33.4873 221.831 32.5346V35.1906H225.065V21.8529C225.065 20.063 224.401 18.6772 223.102 17.6957C221.803 16.6853 220.07 16.1945 217.905 16.1945C215.278 16.1945 212.911 16.9739 210.803 18.504L212.362 20.9579ZM212.362 29.5322C212.362 27.2515 214.123 26.0967 217.588 26.0967C219.118 26.0967 220.532 26.3277 221.831 26.8184V27.9155C221.831 31.12 220.128 32.7367 216.693 32.7367C213.806 32.7367 212.362 31.6685 212.362 29.5322ZM231.358 28.695L228.702 30.2251C228.962 31.7263 229.828 32.9965 231.243 34.0358C232.686 35.0751 234.245 35.5948 235.978 35.5948C238.085 35.5948 239.731 35.1329 240.943 34.209C242.156 33.2564 242.762 31.8417 242.762 29.9364C242.762 27.7134 241.059 25.8658 237.623 24.4512C236.728 24.0758 236.006 23.7583 235.487 23.4985C234.938 23.2386 234.419 22.8922 233.899 22.4303C233.379 21.9972 233.119 21.5353 233.119 21.0734C233.119 19.8609 234.043 19.2546 235.949 19.2546C236.757 19.2546 237.536 19.4567 238.316 19.832C239.067 20.2073 239.644 20.7559 240.019 21.4776L242.617 19.832C242.242 18.8216 241.434 17.9555 240.106 17.2338C238.778 16.5409 237.392 16.1945 235.891 16.1945C234.303 16.1945 232.917 16.6564 231.705 17.5513C230.492 18.4463 229.886 19.6299 229.886 21.0734C229.886 21.824 230.03 22.4592 230.319 23.0654C230.608 23.6717 231.041 24.1625 231.647 24.5955C232.224 25.0285 232.744 25.375 233.264 25.6348C233.783 25.8946 234.419 26.1833 235.198 26.5009C235.92 26.7607 236.439 26.9917 236.815 27.1649C237.161 27.3381 237.594 27.5979 238.056 27.8866C238.518 28.2042 238.864 28.5506 239.095 28.9259C239.297 29.3012 239.413 29.7343 239.413 30.2251C239.413 31.784 238.345 32.5635 236.18 32.5635C235.025 32.5635 233.986 32.1882 233.091 31.4664C232.196 30.7447 231.618 29.8209 231.358 28.695ZM248.478 20.9579C250.239 19.6588 252.087 19.0237 253.992 19.0237C255.089 19.0237 256.013 19.2835 256.764 19.7743C257.543 20.2651 257.918 20.9579 257.918 21.8529V24.6532C256.706 23.9604 255.233 23.6428 253.53 23.6428C251.307 23.6428 249.373 24.1625 247.699 25.1729C246.024 26.2122 245.187 27.6845 245.187 29.5322C245.187 31.5242 245.851 33.0254 247.208 34.0647C248.536 35.0751 249.979 35.5948 251.567 35.5948C253.011 35.5948 254.281 35.335 255.407 34.7864C256.504 34.2379 257.37 33.4873 257.918 32.5346V35.1906H261.152V21.8529C261.152 20.063 260.517 18.6772 259.189 17.6957C257.889 16.6853 256.157 16.1945 253.992 16.1945C251.365 16.1945 248.998 16.9739 246.89 18.504L248.478 20.9579ZM248.478 29.5322C248.478 27.2515 250.21 26.0967 253.675 26.0967C255.205 26.0967 256.619 26.3277 257.918 26.8184V27.9155C257.918 31.12 256.215 32.7367 252.78 32.7367C249.921 32.7367 248.478 31.6685 248.478 29.5322Z" fill="black"/>
<defs>
<linearGradient id="paint0_linear_107_18" x1="0" y1="0" x2="43.6402" y2="20.3498" gradientUnits="userSpaceOnUse">
<stop stop-color="#A21F38"/>
<stop offset="1" stop-color="#D8806B"/>
</linearGradient>
</defs>
</svg>
