<svg width="254" height="49" viewBox="0 0 254 49" fill="none" xmlns="http://www.w3.org/2000/svg">
<path d="M10.008 29.0791H19.0726V48.1517H29.0791V29.0791H38.1437V48.1517H48.1517V0H38.1437V19.0726H29.0791V0H19.0726V19.0726H10.008V0H0V48.1517H10.008V29.0791Z" fill="url(#paint0_linear_107_12)"/>
<path d="M59.1517 25.8226C59.1517 28.6507 60.0112 30.8965 61.7025 32.5878C63.3938 34.2791 65.501 35.1386 67.9964 35.1386C70.6858 35.1386 72.7376 33.9741 74.0961 31.6728V34.7504H77.2015V4.47345H74.0961V19.9724C72.7376 17.6711 70.6858 16.5066 67.9964 16.5066C65.501 16.5066 63.3938 17.3661 61.7025 19.0574C60.0112 20.7487 59.1517 22.9945 59.1517 25.8226ZM62.2848 25.8226C62.2848 23.8263 62.867 22.2736 64.0315 21.1369C65.196 20.0001 66.6655 19.4178 68.3845 19.4178C69.854 19.4178 71.1849 20.0001 72.3494 21.1646C73.5139 22.3291 74.0961 23.8818 74.0961 25.8226C74.0961 27.7634 73.5139 29.3161 72.3494 30.4806C71.1849 31.6451 69.854 32.2273 68.3845 32.2273C66.6655 32.2273 65.196 31.6451 64.0315 30.5083C62.867 29.3715 62.2848 27.8189 62.2848 25.8226ZM82.8299 9.51961C82.8299 10.1019 83.0517 10.5732 83.4676 11.0168C83.9112 11.4327 84.3825 11.6545 84.9648 11.6545C85.547 11.6545 86.0461 11.4327 86.462 11.0168C86.8779 10.5732 87.0997 10.1019 87.0997 9.51961C87.0997 8.93736 86.8779 8.46602 86.462 8.0224C86.0461 7.60651 85.547 7.3847 84.9648 7.3847C84.3825 7.3847 83.9112 7.60651 83.4676 8.0224C83.0517 8.46602 82.8299 8.93736 82.8299 9.51961ZM83.4121 16.8948V34.7504H86.5175V16.8948H83.4121ZM91.3695 25.8226C91.3695 28.6507 92.2291 30.8965 93.9203 32.5878C95.6116 34.2791 97.7188 35.1386 100.214 35.1386C102.904 35.1386 104.955 33.9741 106.314 31.6728V34.3622C106.314 36.4694 105.732 38.0498 104.595 39.1311C103.43 40.2125 102.1 40.767 100.575 40.767C98.8833 40.767 97.5248 40.2956 96.4434 39.3252C95.3898 38.3825 94.863 37.2458 94.863 35.9149H91.73C91.73 38.2162 92.534 40.1016 94.1976 41.5156C95.8335 42.9573 97.9684 43.6782 100.575 43.6782C102.987 43.6782 105.066 42.8464 106.813 41.2106C108.532 39.5748 109.419 37.2735 109.419 34.3622V16.8948H106.314V19.9724C104.955 17.6711 102.904 16.5066 100.214 16.5066C97.7188 16.5066 95.6116 17.3661 93.9203 19.0574C92.2291 20.7487 91.3695 22.9945 91.3695 25.8226ZM94.5026 25.8226C94.5026 23.8263 95.0848 22.2736 96.2493 21.1369C97.4138 20.0001 98.8833 19.4178 100.602 19.4178C102.072 19.4178 103.403 20.0001 104.567 21.1646C105.732 22.3291 106.314 23.8818 106.314 25.8226C106.314 27.7634 105.732 29.3161 104.567 30.4806C103.403 31.6451 102.072 32.2273 100.602 32.2273C98.8833 32.2273 97.4138 31.6451 96.2493 30.5083C95.0848 29.3715 94.5026 27.8189 94.5026 25.8226ZM115.048 9.51961C115.048 10.1019 115.269 10.5732 115.685 11.0168C116.129 11.4327 116.6 11.6545 117.183 11.6545C117.765 11.6545 118.236 11.4327 118.68 11.0168C119.096 10.5732 119.318 10.1019 119.318 9.51961C119.318 8.93736 119.096 8.46602 118.68 8.0224C118.236 7.60651 117.765 7.3847 117.183 7.3847C116.6 7.3847 116.129 7.60651 115.685 8.0224C115.269 8.46602 115.048 8.93736 115.048 9.51961ZM115.63 16.8948V34.7504H118.735V16.8948H115.63ZM125.334 10.6841V16.8948H122.423V19.806H125.334V34.7504H128.439V19.806H131.351V16.8948H128.439V10.6841H125.334ZM135.842 21.0814C137.561 19.8337 139.336 19.2238 141.166 19.2238C142.219 19.2238 143.107 19.4733 143.827 19.9446C144.576 20.416 144.937 21.0814 144.937 21.9409V24.6304C143.772 23.9649 142.358 23.6599 140.694 23.6599C138.587 23.6599 136.73 24.159 135.121 25.1294C133.513 26.1276 132.709 27.5416 132.709 29.3161C132.709 31.2292 133.347 32.6709 134.622 33.6691C135.925 34.6395 137.312 35.1386 138.837 35.1386C140.223 35.1386 141.443 34.889 142.497 34.3622C143.578 33.8354 144.382 33.1146 144.937 32.1996V34.7504H148.042V21.9409C148.042 20.2219 147.404 18.891 146.156 17.9484C144.909 16.9779 143.245 16.5066 141.166 16.5066C138.643 16.5066 136.369 17.2552 134.345 18.7247L135.842 21.0814ZM135.842 29.3161C135.842 27.1257 137.534 26.0167 140.861 26.0167C142.33 26.0167 143.689 26.2385 144.937 26.7098V27.7634C144.937 30.841 143.301 32.3937 140.001 32.3937C137.229 32.3937 135.842 31.3678 135.842 29.3161ZM153.282 4.47345V34.7504H156.387V4.47345H153.282ZM191.711 25.8226C191.711 22.9945 190.851 20.7487 189.16 19.0574C187.468 17.3661 185.361 16.5066 182.866 16.5066C180.176 16.5066 178.125 17.6711 176.766 19.9724V16.8948H173.661V43.2901H176.766V31.6728C178.125 33.9741 180.176 35.1386 182.866 35.1386C185.361 35.1386 187.468 34.2791 189.16 32.5878C190.851 30.8965 191.711 28.6507 191.711 25.8226ZM188.577 25.8226C188.577 27.8189 187.995 29.3715 186.831 30.5083C185.666 31.6451 184.197 32.2273 182.478 32.2273C181.008 32.2273 179.677 31.6451 178.513 30.4806C177.348 29.3161 176.766 27.7634 176.766 25.8226C176.766 23.8818 177.348 22.3291 178.513 21.1646C179.677 20.0001 181.008 19.4178 182.478 19.4178C184.197 19.4178 185.666 20.0001 186.831 21.1369C187.995 22.2736 188.577 23.8263 188.577 25.8226ZM195.98 4.47345V34.7504H199.086V4.47345H195.98ZM206.295 21.0814C208.014 19.8337 209.788 19.2238 211.618 19.2238C212.672 19.2238 213.559 19.4733 214.28 19.9446C215.028 20.416 215.389 21.0814 215.389 21.9409V24.6304C214.224 23.9649 212.81 23.6599 211.147 23.6599C209.039 23.6599 207.182 24.159 205.574 25.1294C203.966 26.1276 203.161 27.5416 203.161 29.3161C203.161 31.2292 203.799 32.6709 205.075 33.6691C206.378 34.6395 207.764 35.1386 209.289 35.1386C210.675 35.1386 211.895 34.889 212.977 34.3622C214.03 33.8354 214.834 33.1146 215.389 32.1996V34.7504H218.494V21.9409C218.494 20.2219 217.856 18.891 216.609 17.9484C215.361 16.9779 213.697 16.5066 211.618 16.5066C209.095 16.5066 206.821 17.2552 204.797 18.7247L206.295 21.0814ZM206.295 29.3161C206.295 27.1257 207.986 26.0167 211.313 26.0167C212.782 26.0167 214.141 26.2385 215.389 26.7098V27.7634C215.389 30.841 213.753 32.3937 210.453 32.3937C207.681 32.3937 206.295 31.3678 206.295 29.3161ZM224.538 28.512L221.988 29.9815C222.237 31.4233 223.069 32.6432 224.427 33.6414C225.814 34.6395 227.311 35.1386 228.975 35.1386C230.999 35.1386 232.579 34.695 233.743 33.8077C234.908 32.8928 235.49 31.5342 235.49 29.7042C235.49 27.5693 233.854 25.7949 230.555 24.4363C229.695 24.0758 229.002 23.7709 228.503 23.5213C227.976 23.2718 227.477 22.9391 226.978 22.4954C226.479 22.0796 226.23 21.6359 226.23 21.1923C226.23 20.0278 227.117 19.4456 228.947 19.4456C229.723 19.4456 230.472 19.6397 231.22 20.0001C231.941 20.3605 232.496 20.8873 232.856 21.5805L235.352 20.0001C234.991 19.0297 234.215 18.1979 232.939 17.5047C231.664 16.8393 230.333 16.5066 228.891 16.5066C227.366 16.5066 226.036 16.9502 224.871 17.8097C223.707 18.6692 223.124 19.806 223.124 21.1923C223.124 21.9132 223.263 22.5232 223.54 23.1054C223.817 23.6877 224.233 24.159 224.816 24.5749C225.37 24.9908 225.869 25.3235 226.368 25.5731C226.867 25.8226 227.477 26.0998 228.226 26.4048C228.919 26.6544 229.418 26.8762 229.779 27.0425C230.111 27.2089 230.527 27.4584 230.971 27.7357C231.414 28.0407 231.747 28.3734 231.969 28.7338C232.163 29.0943 232.274 29.5102 232.274 29.9815C232.274 31.4787 231.248 32.2273 229.169 32.2273C228.06 32.2273 227.061 31.8669 226.202 31.1737C225.342 30.4806 224.788 29.5933 224.538 28.512ZM240.98 21.0814C242.671 19.8337 244.446 19.2238 246.276 19.2238C247.329 19.2238 248.216 19.4733 248.937 19.9446C249.686 20.416 250.046 21.0814 250.046 21.9409V24.6304C248.882 23.9649 247.468 23.6599 245.832 23.6599C243.697 23.6599 241.839 24.159 240.231 25.1294C238.623 26.1276 237.819 27.5416 237.819 29.3161C237.819 31.2292 238.457 32.6709 239.76 33.6691C241.035 34.6395 242.422 35.1386 243.947 35.1386C245.333 35.1386 246.553 34.889 247.634 34.3622C248.688 33.8354 249.52 33.1146 250.046 32.1996V34.7504H253.152V21.9409C253.152 20.2219 252.542 18.891 251.266 17.9484C250.019 16.9779 248.355 16.5066 246.276 16.5066C243.753 16.5066 241.479 17.2552 239.455 18.7247L240.98 21.0814ZM240.98 29.3161C240.98 27.1257 242.644 26.0167 245.971 26.0167C247.44 26.0167 248.799 26.2385 250.046 26.7098V27.7634C250.046 30.841 248.411 32.3937 245.111 32.3937C242.366 32.3937 240.98 31.3678 240.98 29.3161Z" fill="white"/>
<defs>
<linearGradient id="paint0_linear_107_12" x1="0" y1="0" x2="43.6402" y2="20.3498" gradientUnits="userSpaceOnUse">
<stop stop-color="#A21F38"/>
<stop offset="1" stop-color="#D8806B"/>
</linearGradient>
</defs>
</svg>
